<svg xmlns="http://www.w3.org/2000/svg" xmlns:xlink="http://www.w3.org/1999/xlink" width="1280" zoomAndPan="magnify" viewBox="0 0 960 540.000001" height="720" preserveAspectRatio="xMidYMid meet" version="1.0"><defs><clipPath id="7afd56d465"><path d="M 454 8.832031 L 739.628906 8.832031 L 739.628906 502 L 454 502 Z M 454 8.832031 " clip-rule="nonzero"/></clipPath><clipPath id="4e9dca18cb"><path d="M 220.09375 61 L 354 61 L 354 430 L 220.09375 430 Z M 220.09375 61 " clip-rule="nonzero"/></clipPath><clipPath id="07b4b51096"><path d="M 391 478 L 576 478 L 576 529.867188 L 391 529.867188 Z M 391 478 " clip-rule="nonzero"/></clipPath><clipPath id="9365c744af"><path d="M 384 466 L 581 466 L 581 529.867188 L 384 529.867188 Z M 384 466 " clip-rule="nonzero"/></clipPath><clipPath id="194c1b4bec"><path d="M 470 487 L 494 487 L 494 529.867188 L 470 529.867188 Z M 470 487 " clip-rule="nonzero"/></clipPath><clipPath id="336843d0a3"><path d="M 367 279 L 450 279 L 450 529.867188 L 367 529.867188 Z M 367 279 " clip-rule="nonzero"/></clipPath><clipPath id="519c208af8"><path d="M 507 277 L 590 277 L 590 529.867188 L 507 529.867188 Z M 507 277 " clip-rule="nonzero"/></clipPath></defs><g clip-path="url(#7afd56d465)"><path fill="#2f3582" d="M 717.570312 501.570312 L 476.105469 501.570312 C 463.921875 501.570312 454.042969 491.695312 454.042969 479.507812 L 454.042969 30.980469 C 454.042969 18.796875 463.921875 8.921875 476.105469 8.921875 L 717.570312 8.921875 C 729.753906 8.921875 739.632812 18.796875 739.632812 30.980469 L 739.632812 479.511719 C 739.632812 491.695312 729.753906 501.570312 717.570312 501.570312 Z M 717.570312 501.570312 " fill-opacity="1" fill-rule="nonzero"/></g><path fill="#a1c8ff" d="M 669.457031 80.636719 L 466.144531 80.636719 L 466.144531 445.105469 L 669.457031 445.105469 C 682.117188 445.105469 692.382812 434.84375 692.382812 422.1875 L 692.382812 103.554688 C 692.382812 90.898438 682.117188 80.636719 669.457031 80.636719 Z M 669.457031 80.636719 " fill-opacity="1" fill-rule="nonzero"/><path fill="#a6cbff" d="M 709.21875 488.664062 L 484.457031 488.664062 C 474.34375 488.664062 466.144531 480.464844 466.144531 470.351562 L 466.144531 40.140625 C 466.144531 30.027344 474.34375 21.828125 484.457031 21.828125 L 709.21875 21.828125 C 719.335938 21.828125 727.535156 30.027344 727.535156 40.140625 L 727.535156 470.351562 C 727.535156 480.464844 719.335938 488.664062 709.21875 488.664062 Z M 709.21875 488.664062 " fill-opacity="1" fill-rule="nonzero"/><path fill="#b3d2ff" d="M 673.46875 488.664062 L 727.535156 369.910156 L 727.535156 126.816406 L 562.792969 488.664062 Z M 673.46875 488.664062 " fill-opacity="1" fill-rule="nonzero"/><path fill="#b3d2ff" d="M 466.144531 64.828125 L 466.144531 307.921875 L 596.394531 21.828125 L 485.71875 21.828125 Z M 466.144531 64.828125 " fill-opacity="1" fill-rule="nonzero"/><path fill="#b3d2ff" d="M 722.574219 27.617188 C 719.234375 24.058594 714.488281 21.828125 709.21875 21.828125 L 656.039062 21.828125 L 466.144531 438.929688 L 466.144531 470.347656 C 466.144531 480.464844 474.34375 488.664062 484.457031 488.664062 L 512.671875 488.664062 Z M 722.574219 27.617188 " fill-opacity="1" fill-rule="nonzero"/><path fill="#a1c8ff" d="M 669.457031 80.636719 L 466.144531 80.636719 L 466.144531 445.105469 L 669.457031 445.105469 C 682.117188 445.105469 692.382812 434.84375 692.382812 422.1875 L 692.382812 103.554688 C 692.382812 90.898438 682.117188 80.636719 669.457031 80.636719 Z M 669.457031 80.636719 " fill-opacity="1" fill-rule="nonzero"/><path fill="#a6cbff" d="M 582.621094 445.105469 L 669.457031 445.105469 C 682.117188 445.105469 692.382812 434.84375 692.382812 422.1875 L 692.382812 204.027344 Z M 582.621094 445.105469 " fill-opacity="1" fill-rule="nonzero"/><path fill="#a6cbff" d="M 691.246094 96.433594 C 688.25 87.261719 679.628906 80.636719 669.457031 80.636719 L 629.265625 80.636719 L 466.144531 438.929688 L 466.144531 445.105469 L 532.5 445.105469 Z M 691.246094 96.433594 " fill-opacity="1" fill-rule="nonzero"/><path fill="#ffffff" d="M 709.21875 489.382812 L 484.457031 489.382812 C 473.960938 489.382812 465.421875 480.84375 465.421875 470.351562 L 465.421875 40.140625 C 465.421875 29.644531 473.960938 21.105469 484.457031 21.105469 L 709.21875 21.105469 C 719.714844 21.105469 728.253906 29.644531 728.253906 40.140625 L 728.253906 470.351562 C 728.253906 480.84375 719.714844 489.382812 709.21875 489.382812 Z M 484.457031 22.550781 C 474.757812 22.550781 466.867188 30.441406 466.867188 40.140625 L 466.867188 470.351562 C 466.867188 480.046875 474.757812 487.941406 484.457031 487.941406 L 709.21875 487.941406 C 718.917969 487.941406 726.8125 480.046875 726.8125 470.351562 L 726.8125 40.140625 C 726.8125 30.441406 718.917969 22.550781 709.21875 22.550781 Z M 484.457031 22.550781 " fill-opacity="1" fill-rule="nonzero"/><path fill="#2f3582" d="M 647.511719 30.972656 L 546.164062 30.972656 C 539.949219 30.972656 534.914062 25.9375 534.914062 19.722656 L 534.914062 17.371094 L 658.761719 17.371094 L 658.761719 19.722656 C 658.761719 25.9375 653.726562 30.972656 647.511719 30.972656 Z M 647.511719 30.972656 " fill-opacity="1" fill-rule="nonzero"/><path fill="#ffffff" d="M 647.511719 31.695312 L 546.164062 31.695312 C 540.417969 31.695312 535.46875 27.601562 534.398438 21.964844 C 534.324219 21.570312 534.582031 21.195312 534.976562 21.121094 C 535.367188 21.046875 535.746094 21.304688 535.820312 21.695312 C 536.757812 26.652344 541.109375 30.25 546.164062 30.25 L 647.511719 30.25 C 652.582031 30.25 656.9375 26.640625 657.863281 21.660156 C 657.933594 21.269531 658.3125 21.011719 658.703125 21.082031 C 659.097656 21.15625 659.355469 21.535156 659.28125 21.925781 C 658.230469 27.585938 653.277344 31.695312 647.511719 31.695312 Z M 647.511719 31.695312 " fill-opacity="1" fill-rule="nonzero"/><path fill="#ffffff" d="M 682.917969 427.613281 L 244.875 427.613281 C 232.214844 427.613281 221.953125 417.351562 221.953125 404.691406 L 221.953125 86.0625 C 221.953125 73.402344 232.214844 63.140625 244.875 63.140625 L 682.917969 63.140625 C 695.578125 63.140625 705.839844 73.402344 705.839844 86.0625 L 705.839844 404.691406 C 705.839844 417.351562 695.578125 427.613281 682.917969 427.613281 Z M 682.917969 427.613281 " fill-opacity="1" fill-rule="nonzero"/><path fill="#e3f0ff" d="M 441.808594 65.003906 L 420.632812 65.003906 C 419.601562 65.003906 418.769531 64.167969 418.769531 63.140625 C 418.769531 62.113281 419.601562 61.277344 420.632812 61.277344 L 441.808594 61.277344 C 442.839844 61.277344 443.671875 62.113281 443.671875 63.140625 C 443.671875 64.167969 442.839844 65.003906 441.808594 65.003906 Z M 441.808594 65.003906 " fill-opacity="1" fill-rule="nonzero"/><path fill="#e3f0ff" d="M 382.542969 65.003906 L 358.253906 65.003906 C 357.226562 65.003906 356.394531 64.167969 356.394531 63.140625 C 356.394531 62.113281 357.226562 61.277344 358.253906 61.277344 L 382.542969 61.277344 C 383.574219 61.277344 384.40625 62.113281 384.40625 63.140625 C 384.40625 64.167969 383.574219 65.003906 382.542969 65.003906 Z M 382.542969 65.003906 " fill-opacity="1" fill-rule="nonzero"/><path fill="#e3f0ff" d="M 320.898438 65.003906 L 295.878906 65.003906 C 294.851562 65.003906 294.015625 64.167969 294.015625 63.140625 C 294.015625 62.113281 294.851562 61.277344 295.878906 61.277344 L 320.898438 61.277344 C 321.929688 61.277344 322.761719 62.113281 322.761719 63.140625 C 322.761719 64.167969 321.929688 65.003906 320.898438 65.003906 Z M 320.898438 65.003906 " fill-opacity="1" fill-rule="nonzero"/><g clip-path="url(#4e9dca18cb)"><path fill="#e3f0ff" d="M 351.183594 429.476562 L 244.875 429.476562 C 231.210938 429.476562 220.089844 418.355469 220.089844 404.691406 L 220.089844 86.0625 C 220.089844 72.394531 231.210938 61.277344 244.875 61.277344 L 255.859375 61.277344 C 256.886719 61.277344 257.722656 62.113281 257.722656 63.140625 C 257.722656 64.167969 256.886719 65.003906 255.859375 65.003906 L 244.875 65.003906 C 233.265625 65.003906 223.816406 74.449219 223.816406 86.0625 L 223.816406 404.691406 C 223.816406 416.300781 233.265625 425.75 244.875 425.75 L 351.183594 425.75 C 352.210938 425.75 353.046875 426.582031 353.046875 427.613281 C 353.046875 428.640625 352.210938 429.476562 351.183594 429.476562 Z M 351.183594 429.476562 " fill-opacity="1" fill-rule="nonzero"/></g><path fill="#c0ddff" d="M 312.660156 218.042969 L 254.8125 218.042969 C 250.261719 218.042969 246.574219 214.355469 246.574219 209.804688 L 246.574219 162.484375 C 246.574219 157.933594 250.261719 154.242188 254.8125 154.242188 L 312.660156 154.242188 C 317.210938 154.242188 320.898438 157.933594 320.898438 162.484375 L 320.898438 209.804688 C 320.898438 214.355469 317.210938 218.042969 312.660156 218.042969 Z M 312.660156 218.042969 " fill-opacity="1" fill-rule="nonzero"/><path fill="#c0ddff" d="M 403.269531 218.042969 L 345.421875 218.042969 C 340.871094 218.042969 337.183594 214.355469 337.183594 209.804688 L 337.183594 162.484375 C 337.183594 157.933594 340.871094 154.242188 345.421875 154.242188 L 403.269531 154.242188 C 407.820312 154.242188 411.511719 157.933594 411.511719 162.484375 L 411.511719 209.804688 C 411.511719 214.355469 407.820312 218.042969 403.269531 218.042969 Z M 403.269531 218.042969 " fill-opacity="1" fill-rule="nonzero"/><path fill="#c0ddff" d="M 493.882812 218.042969 L 436.03125 218.042969 C 431.484375 218.042969 427.792969 214.355469 427.792969 209.804688 L 427.792969 162.484375 C 427.792969 157.933594 431.484375 154.242188 436.03125 154.242188 L 493.882812 154.242188 C 498.433594 154.242188 502.121094 157.933594 502.121094 162.484375 L 502.121094 209.804688 C 502.121094 214.355469 498.433594 218.042969 493.882812 218.042969 Z M 493.882812 218.042969 " fill-opacity="1" fill-rule="nonzero"/><path fill="#c0ddff" d="M 312.660156 311.023438 L 254.8125 311.023438 C 250.261719 311.023438 246.574219 307.335938 246.574219 302.785156 L 246.574219 255.464844 C 246.574219 250.914062 250.261719 247.222656 254.8125 247.222656 L 312.660156 247.222656 C 317.210938 247.222656 320.898438 250.914062 320.898438 255.464844 L 320.898438 302.785156 C 320.898438 307.335938 317.210938 311.023438 312.660156 311.023438 Z M 312.660156 311.023438 " fill-opacity="1" fill-rule="nonzero"/><path fill="#c0ddff" d="M 403.269531 311.023438 L 345.421875 311.023438 C 340.871094 311.023438 337.183594 307.335938 337.183594 302.785156 L 337.183594 255.464844 C 337.183594 250.914062 340.871094 247.222656 345.421875 247.222656 L 403.269531 247.222656 C 407.820312 247.222656 411.511719 250.914062 411.511719 255.464844 L 411.511719 302.785156 C 411.511719 307.335938 407.820312 311.023438 403.269531 311.023438 Z M 403.269531 311.023438 " fill-opacity="1" fill-rule="nonzero"/><path fill="#c0ddff" d="M 493.882812 311.023438 L 436.03125 311.023438 C 431.484375 311.023438 427.792969 307.335938 427.792969 302.785156 L 427.792969 255.464844 C 427.792969 250.914062 431.484375 247.222656 436.03125 247.222656 L 493.882812 247.222656 C 498.433594 247.222656 502.121094 250.914062 502.121094 255.464844 L 502.121094 302.785156 C 502.121094 307.335938 498.433594 311.023438 493.882812 311.023438 Z M 493.882812 311.023438 " fill-opacity="1" fill-rule="nonzero"/><path fill="#c0ddff" d="M 312.660156 404.003906 L 254.8125 404.003906 C 250.261719 404.003906 246.574219 400.316406 246.574219 395.765625 L 246.574219 348.445312 C 246.574219 343.894531 250.261719 340.203125 254.8125 340.203125 L 312.660156 340.203125 C 317.210938 340.203125 320.898438 343.894531 320.898438 348.445312 L 320.898438 395.765625 C 320.898438 400.316406 317.210938 404.003906 312.660156 404.003906 Z M 312.660156 404.003906 " fill-opacity="1" fill-rule="nonzero"/><path fill="#c0ddff" d="M 403.269531 404.003906 L 345.421875 404.003906 C 340.871094 404.003906 337.183594 400.316406 337.183594 395.765625 L 337.183594 348.445312 C 337.183594 343.894531 340.871094 340.203125 345.421875 340.203125 L 403.269531 340.203125 C 407.820312 340.203125 411.511719 343.894531 411.511719 348.445312 L 411.511719 395.765625 C 411.511719 400.316406 407.820312 404.003906 403.269531 404.003906 Z M 403.269531 404.003906 " fill-opacity="1" fill-rule="nonzero"/><path fill="#c0ddff" d="M 493.882812 404.003906 L 436.03125 404.003906 C 431.484375 404.003906 427.792969 400.316406 427.792969 395.765625 L 427.792969 348.445312 C 427.792969 343.894531 431.484375 340.203125 436.03125 340.203125 L 493.882812 340.203125 C 498.433594 340.203125 502.121094 343.894531 502.121094 348.445312 L 502.121094 395.765625 C 502.121094 400.316406 498.433594 404.003906 493.882812 404.003906 Z M 493.882812 404.003906 " fill-opacity="1" fill-rule="nonzero"/><path fill="#c0ddff" d="M 584.492188 218.042969 L 526.644531 218.042969 C 522.09375 218.042969 518.40625 214.355469 518.40625 209.804688 L 518.40625 162.484375 C 518.40625 157.933594 522.09375 154.242188 526.644531 154.242188 L 584.492188 154.242188 C 589.042969 154.242188 592.730469 157.933594 592.730469 162.484375 L 592.730469 209.804688 C 592.730469 214.355469 589.042969 218.042969 584.492188 218.042969 Z M 584.492188 218.042969 " fill-opacity="1" fill-rule="nonzero"/><path fill="#c0ddff" d="M 584.492188 311.023438 L 526.644531 311.023438 C 522.09375 311.023438 518.40625 307.335938 518.40625 302.785156 L 518.40625 255.464844 C 518.40625 250.914062 522.09375 247.222656 526.644531 247.222656 L 584.492188 247.222656 C 589.042969 247.222656 592.730469 250.914062 592.730469 255.464844 L 592.730469 302.785156 C 592.730469 307.335938 589.042969 311.023438 584.492188 311.023438 Z M 584.492188 311.023438 " fill-opacity="1" fill-rule="nonzero"/><path fill="#c0ddff" d="M 584.492188 404.003906 L 526.644531 404.003906 C 522.09375 404.003906 518.40625 400.316406 518.40625 395.765625 L 518.40625 348.445312 C 518.40625 343.894531 522.09375 340.203125 526.644531 340.203125 L 584.492188 340.203125 C 589.042969 340.203125 592.730469 343.894531 592.730469 348.445312 L 592.730469 395.765625 C 592.730469 400.316406 589.042969 404.003906 584.492188 404.003906 Z M 584.492188 404.003906 " fill-opacity="1" fill-rule="nonzero"/><path fill="#c0ddff" d="M 675.101562 218.042969 L 617.253906 218.042969 C 612.703125 218.042969 609.015625 214.355469 609.015625 209.804688 L 609.015625 162.484375 C 609.015625 157.933594 612.703125 154.242188 617.253906 154.242188 L 675.101562 154.242188 C 679.652344 154.242188 683.34375 157.933594 683.34375 162.484375 L 683.34375 209.804688 C 683.34375 214.355469 679.652344 218.042969 675.101562 218.042969 Z M 675.101562 218.042969 " fill-opacity="1" fill-rule="nonzero"/><path fill="#c0ddff" d="M 675.101562 311.023438 L 617.253906 311.023438 C 612.703125 311.023438 609.015625 307.335938 609.015625 302.785156 L 609.015625 255.464844 C 609.015625 250.914062 612.703125 247.222656 617.253906 247.222656 L 675.101562 247.222656 C 679.652344 247.222656 683.34375 250.914062 683.34375 255.464844 L 683.34375 302.785156 C 683.34375 307.335938 679.652344 311.023438 675.101562 311.023438 Z M 675.101562 311.023438 " fill-opacity="1" fill-rule="nonzero"/><path fill="#c0ddff" d="M 675.101562 404.003906 L 617.253906 404.003906 C 612.703125 404.003906 609.015625 400.316406 609.015625 395.765625 L 609.015625 348.445312 C 609.015625 343.894531 612.703125 340.203125 617.253906 340.203125 L 675.101562 340.203125 C 679.652344 340.203125 683.34375 343.894531 683.34375 348.445312 L 683.34375 395.765625 C 683.34375 400.316406 679.652344 404.003906 675.101562 404.003906 Z M 675.101562 404.003906 " fill-opacity="1" fill-rule="nonzero"/><path fill="#c0ddff" d="M 506.722656 136.535156 L 253.210938 136.535156 C 249.542969 136.535156 246.574219 133.5625 246.574219 129.898438 L 246.574219 108.3125 C 246.574219 104.648438 249.542969 101.675781 253.210938 101.675781 L 506.722656 101.675781 C 510.390625 101.675781 513.363281 104.648438 513.363281 108.3125 L 513.363281 129.898438 C 513.363281 133.5625 510.390625 136.535156 506.722656 136.535156 Z M 506.722656 136.535156 " fill-opacity="1" fill-rule="nonzero"/><path fill="#c0ddff" d="M 276.980469 81.816406 C 270.460938 81.816406 265.175781 76.53125 265.175781 70.011719 L 265.175781 56.269531 C 265.175781 49.75 270.460938 44.464844 276.980469 44.464844 C 283.5 44.464844 288.785156 49.75 288.785156 56.269531 L 288.785156 70.011719 C 288.785156 76.53125 283.5 81.816406 276.980469 81.816406 Z M 276.980469 81.816406 " fill-opacity="1" fill-rule="nonzero"/><path fill="#c0ddff" d="M 339.378906 81.816406 C 332.859375 81.816406 327.574219 76.53125 327.574219 70.011719 L 327.574219 56.269531 C 327.574219 49.75 332.859375 44.464844 339.378906 44.464844 C 345.898438 44.464844 351.183594 49.75 351.183594 56.269531 L 351.183594 70.011719 C 351.183594 76.53125 345.898438 81.816406 339.378906 81.816406 Z M 339.378906 81.816406 " fill-opacity="1" fill-rule="nonzero"/><path fill="#c0ddff" d="M 401.777344 81.816406 C 395.253906 81.816406 389.96875 76.53125 389.96875 70.011719 L 389.96875 56.269531 C 389.96875 49.75 395.253906 44.464844 401.777344 44.464844 C 408.296875 44.464844 413.582031 49.75 413.582031 56.269531 L 413.582031 70.011719 C 413.582031 76.53125 408.296875 81.816406 401.777344 81.816406 Z M 401.777344 81.816406 " fill-opacity="1" fill-rule="nonzero"/><path fill="#c0ddff" d="M 464.171875 81.816406 C 457.652344 81.816406 452.367188 76.53125 452.367188 70.011719 L 452.367188 56.269531 C 452.367188 49.75 457.652344 44.464844 464.171875 44.464844 C 470.691406 44.464844 475.976562 49.75 475.976562 56.269531 L 475.976562 70.011719 C 475.976562 76.53125 470.691406 81.816406 464.171875 81.816406 Z M 464.171875 81.816406 " fill-opacity="1" fill-rule="nonzero"/><path fill="#c0ddff" d="M 526.570312 81.816406 C 520.050781 81.816406 514.765625 76.53125 514.765625 70.011719 L 514.765625 56.269531 C 514.765625 49.75 520.050781 44.464844 526.570312 44.464844 C 533.089844 44.464844 538.375 49.75 538.375 56.269531 L 538.375 70.011719 C 538.375 76.53125 533.089844 81.816406 526.570312 81.816406 Z M 526.570312 81.816406 " fill-opacity="1" fill-rule="nonzero"/><path fill="#c0ddff" d="M 588.96875 81.816406 C 582.445312 81.816406 577.160156 76.53125 577.160156 70.011719 L 577.160156 56.269531 C 577.160156 49.75 582.445312 44.464844 588.96875 44.464844 C 595.488281 44.464844 600.773438 49.75 600.773438 56.269531 L 600.773438 70.011719 C 600.773438 76.53125 595.488281 81.816406 588.96875 81.816406 Z M 588.96875 81.816406 " fill-opacity="1" fill-rule="nonzero"/><path fill="#c0ddff" d="M 651.363281 81.816406 C 644.84375 81.816406 639.558594 76.53125 639.558594 70.011719 L 639.558594 56.269531 C 639.558594 49.75 644.84375 44.464844 651.363281 44.464844 C 657.882812 44.464844 663.167969 49.75 663.167969 56.269531 L 663.167969 70.011719 C 663.167969 76.53125 657.882812 81.816406 651.363281 81.816406 Z M 651.363281 81.816406 " fill-opacity="1" fill-rule="nonzero"/><path fill="#9e5959" d="M 548.398438 450.945312 C 548.398438 450.945312 549.296875 464.300781 554.386719 488.179688 C 554.386719 488.179688 523.746094 504.527344 479.554688 504.527344 C 435.363281 504.527344 411.199219 488.179688 411.199219 488.179688 C 416.289062 464.300781 414.828125 446.550781 414.828125 446.550781 C 414.828125 446.550781 439.085938 431.441406 479.554688 431.441406 C 520.023438 431.441406 548.398438 450.945312 548.398438 450.945312 Z M 548.398438 450.945312 " fill-opacity="1" fill-rule="nonzero"/><g clip-path="url(#07b4b51096)"><path fill="#9e5959" d="M 575.179688 529.78125 L 391.835938 529.78125 C 399.675781 505.542969 411.199219 488.175781 411.199219 488.175781 C 413.179688 487.304688 415.410156 486.488281 417.847656 485.730469 C 418.949219 485.390625 420.089844 485.0625 421.273438 484.746094 C 423.0625 484.265625 424.949219 483.8125 426.914062 483.386719 C 433.71875 481.910156 441.496094 480.765625 449.816406 479.945312 C 453.398438 479.589844 457.085938 479.300781 460.835938 479.070312 C 479.570312 477.910156 499.953125 478.269531 517.671875 480.136719 C 521.105469 480.503906 524.4375 480.921875 527.640625 481.398438 C 533.433594 482.257812 538.796875 483.308594 543.542969 484.539062 C 547.667969 485.613281 551.320312 486.824219 554.386719 488.175781 C 554.386719 488.175781 566.84375 504.023438 575.179688 529.78125 Z M 575.179688 529.78125 " fill-opacity="1" fill-rule="nonzero"/></g><g clip-path="url(#9365c744af)"><path fill="#4f3e4f" d="M 580.308594 529.78125 L 384.503906 529.78125 C 393.128906 499.277344 408.285156 495.488281 411.199219 471.847656 C 412.367188 466.457031 414.390625 466.757812 414.410156 466.765625 C 415.933594 467.257812 421.035156 468.140625 423.652344 468.46875 C 463.984375 472.53125 505.25 472.742188 545.492188 467.773438 C 547.171875 467.488281 548.941406 467.171875 550.5 466.761719 C 553.847656 466.230469 555.414062 481.832031 555.660156 483.15625 C 561.796875 494.53125 573.832031 507.199219 580.308594 529.78125 Z M 580.308594 529.78125 " fill-opacity="1" fill-rule="nonzero"/></g><path fill="#382b38" d="M 553.703125 471.847656 C 552.542969 466.464844 550.5 466.761719 550.5 466.761719 C 550.5 466.761719 534.683594 471.308594 481.78125 471.308594 C 428.878906 471.308594 414.402344 466.761719 414.402344 466.761719 C 414.402344 466.761719 412.359375 466.464844 411.199219 471.847656 C 410.039062 477.234375 409.230469 483.15625 409.230469 483.15625 C 409.230469 483.15625 471.394531 493.65625 555.671875 483.15625 C 555.671875 483.15625 554.863281 477.234375 553.703125 471.847656 Z M 553.703125 471.847656 " fill-opacity="1" fill-rule="nonzero"/><path fill="#323c7a" d="M 425.460938 468.707031 C 425.460938 468.707031 419.828125 471.90625 417.539062 487.675781 L 425.460938 488.667969 C 425.460938 488.667969 428.804688 473.660156 434.429688 469.644531 C 434.429688 469.644531 430.035156 467.742188 425.460938 468.707031 Z M 425.460938 468.707031 " fill-opacity="1" fill-rule="nonzero"/><path fill="#4f3e4f" d="M 451.492188 470.71875 L 447.976562 490.078125 L 458.53125 490.960938 C 458.53125 490.960938 461.519531 477.410156 461.871094 470.902344 C 461.871094 470.902344 455.1875 469.476562 451.492188 470.71875 Z M 451.492188 470.71875 " fill-opacity="1" fill-rule="nonzero"/><path fill="#4f3e4f" d="M 522.808594 470.152344 C 522.808594 470.152344 527.59375 478.671875 529.601562 488.667969 L 519.398438 488.667969 C 519.398438 488.667969 517.632812 476.683594 514.292969 470.625 C 514.292969 470.625 519.710938 469.046875 522.808594 470.152344 Z M 522.808594 470.152344 " fill-opacity="1" fill-rule="nonzero"/><g clip-path="url(#194c1b4bec)"><path fill="#423342" d="M 493.625 503.976562 C 493.609375 512.148438 493.507812 521.003906 493.359375 529.78125 L 472.011719 529.78125 C 471.480469 520.382812 471.054688 511.480469 470.734375 504.304688 C 470.300781 494.460938 470.074219 487.875 470.066406 487.734375 C 470.066406 487.734375 493.472656 487.675781 493.472656 487.675781 L 493.503906 487.675781 C 493.601562 492.566406 493.632812 498.09375 493.625 503.976562 Z M 493.625 503.976562 " fill-opacity="1" fill-rule="nonzero"/></g><path fill="#4f3e4f" d="M 486.679688 495.164062 C 486.9375 495.417969 487.164062 495.695312 487.363281 495.996094 C 487.566406 496.296875 487.734375 496.613281 487.875 496.949219 C 488.011719 497.28125 488.117188 497.625 488.1875 497.980469 C 488.257812 498.335938 488.292969 498.695312 488.292969 499.054688 C 488.292969 499.417969 488.257812 499.773438 488.1875 500.128906 C 488.117188 500.484375 488.011719 500.828125 487.875 501.160156 C 487.734375 501.496094 487.566406 501.8125 487.363281 502.113281 C 487.164062 502.414062 486.9375 502.691406 486.679688 502.949219 C 486.425781 503.203125 486.148438 503.433594 485.847656 503.632812 C 485.546875 503.832031 485.226562 504.003906 484.894531 504.140625 C 484.558594 504.28125 484.214844 504.382812 483.859375 504.453125 C 483.507812 504.523438 483.148438 504.558594 482.789062 504.558594 C 482.425781 504.558594 482.066406 504.523438 481.714844 504.453125 C 481.359375 504.382812 481.015625 504.28125 480.679688 504.140625 C 480.347656 504.003906 480.027344 503.832031 479.730469 503.632812 C 479.429688 503.433594 479.148438 503.203125 478.894531 502.949219 C 478.636719 502.691406 478.410156 502.414062 478.210938 502.113281 C 478.007812 501.8125 477.839844 501.496094 477.699219 501.164062 C 477.5625 500.828125 477.457031 500.484375 477.386719 500.128906 C 477.316406 499.773438 477.28125 499.417969 477.28125 499.054688 C 477.28125 498.695312 477.316406 498.335938 477.386719 497.980469 C 477.457031 497.625 477.5625 497.28125 477.699219 496.949219 C 477.839844 496.613281 478.007812 496.296875 478.210938 495.996094 C 478.410156 495.695312 478.636719 495.417969 478.894531 495.164062 C 479.148438 494.90625 479.429688 494.679688 479.726562 494.476562 C 480.027344 494.277344 480.347656 494.109375 480.679688 493.96875 C 481.015625 493.832031 481.359375 493.726562 481.714844 493.65625 C 482.066406 493.585938 482.425781 493.550781 482.785156 493.550781 C 483.148438 493.550781 483.507812 493.585938 483.859375 493.65625 C 484.214844 493.726562 484.558594 493.832031 484.894531 493.96875 C 485.226562 494.105469 485.546875 494.277344 485.847656 494.476562 C 486.144531 494.679688 486.425781 494.90625 486.679688 495.164062 Z M 486.679688 495.164062 " fill-opacity="1" fill-rule="nonzero"/><path fill="#9e5959" d="M 564.429688 323.726562 C 558.476562 337.1875 546.882812 352.039062 549.585938 362.128906 C 561.476562 407.761719 547.625 415.886719 548.398438 450.949219 C 548.398438 467.332031 532.671875 475.601562 516.253906 466.917969 C 501.4375 457.503906 499.457031 449.730469 481.730469 449.957031 C 471.328125 450.554688 472.410156 450.941406 461.875 460.710938 C 442.800781 478.386719 415.703125 473.242188 415.703125 453.941406 C 415.703125 446.96875 414.675781 445.398438 414.519531 440.15625 C 413.664062 411.628906 397.539062 408.0625 408.550781 366.972656 C 411.253906 356.882812 404.984375 344.597656 399.03125 331.136719 C 393.453125 318.515625 393.828125 299.960938 399.578125 297.464844 C 406.804688 294.328125 413.191406 290.769531 418.945312 288.695312 C 471.609375 270.5 485.386719 271.96875 529.816406 281.707031 C 538.175781 283.847656 550.867188 285.933594 561.398438 288.703125 C 567.320312 290.761719 570.007812 311.105469 564.429688 323.726562 Z M 564.429688 323.726562 " fill-opacity="1" fill-rule="nonzero"/><path fill="#121d3f" d="M 447.472656 131.277344 C 424.679688 143.167969 410.0625 172.191406 415.929688 202.707031 C 415.070312 209.296875 406.90625 217.097656 409.816406 223.472656 C 422.628906 245.414062 406.714844 238.296875 406.167969 254.222656 C 406.167969 254.222656 418.101562 263.015625 424.085938 261.214844 C 424.390625 258.167969 426.925781 248.125 429.304688 245.464844 C 427.347656 253.152344 432.027344 257.65625 430.050781 263.867188 C 430.050781 263.867188 436.515625 265.414062 440.980469 264.398438 C 445.449219 263.386719 452.238281 265.496094 452.238281 265.496094 C 452.238281 265.496094 468 272 479.007812 270.390625 C 490.070312 271.527344 509.414062 266.773438 509.414062 266.773438 C 509.414062 266.773438 516.105469 264.375 520.609375 265.195312 C 525.117188 266.019531 531.511719 264.195312 531.511719 264.195312 C 529.269531 258.070312 533.75 253.410156 531.46875 245.777344 C 534 248.386719 536.9375 258.363281 537.355469 261.292969 C 543.410156 262.832031 554.957031 253.539062 554.957031 253.539062 C 553.738281 237.65625 538.136719 245.453125 550 222.972656 C 552.636719 216.480469 544.144531 209.035156 543.003906 202.488281 C 547.773438 171.015625 530.671875 142.691406 508.179688 131.484375 C 508.179688 131.484375 447.472656 131.277344 447.472656 131.277344 Z M 447.472656 131.277344 " fill-opacity="1" fill-rule="nonzero"/><path fill="#9e5959" d="M 503.644531 275.917969 L 500.953125 243.398438 C 500.476562 215.285156 458.632812 215.265625 458.15625 243.402344 C 457.960938 245.511719 455.171875 279.023438 455.132812 279.914062 C 456.125 314.640625 508.359375 310.34375 503.644531 275.917969 Z M 503.644531 275.917969 " fill-opacity="1" fill-rule="nonzero"/><path fill="#944a4a" d="M 479.554688 272.933594 C 481.984375 272.777344 491.980469 271.859375 502.554688 262.738281 C 501.269531 245.816406 502.667969 222.640625 479.554688 222.003906 C 456.445312 222.636719 457.835938 245.832031 456.554688 262.738281 C 467.128906 271.859375 477.125 272.777344 479.554688 272.933594 Z M 479.554688 272.933594 " fill-opacity="1" fill-rule="nonzero"/><path fill="#9e5959" d="M 479.875 126.785156 C 479.875 126.785156 536.976562 122.988281 529.066406 193.53125 C 521.160156 264.074219 484.777344 267.554688 479.875 267.871094 C 474.972656 267.554688 438.589844 264.074219 430.683594 193.53125 C 422.773438 122.988281 479.875 126.785156 479.875 126.785156 Z M 479.875 126.785156 " fill-opacity="1" fill-rule="nonzero"/><path fill="#121d3f" d="M 500.957031 201.898438 C 500.957031 202.296875 500.925781 202.6875 500.867188 203.078125 C 500.808594 203.46875 500.71875 203.847656 500.601562 204.214844 C 500.484375 204.582031 500.339844 204.929688 500.171875 205.261719 C 500 205.589844 499.808594 205.894531 499.59375 206.175781 C 499.375 206.457031 499.140625 206.710938 498.886719 206.929688 C 498.632812 207.152344 498.363281 207.335938 498.082031 207.488281 C 497.800781 207.640625 497.507812 207.757812 497.207031 207.832031 C 496.910156 207.910156 496.605469 207.949219 496.300781 207.949219 C 495.996094 207.949219 495.691406 207.910156 495.390625 207.832031 C 495.09375 207.757812 494.800781 207.640625 494.519531 207.488281 C 494.234375 207.335938 493.96875 207.152344 493.714844 206.929688 C 493.460938 206.710938 493.222656 206.457031 493.007812 206.175781 C 492.792969 205.894531 492.597656 205.589844 492.429688 205.261719 C 492.257812 204.929688 492.117188 204.582031 492 204.214844 C 491.882812 203.847656 491.792969 203.46875 491.734375 203.078125 C 491.671875 202.6875 491.644531 202.296875 491.644531 201.898438 C 491.644531 201.5 491.671875 201.105469 491.734375 200.71875 C 491.792969 200.328125 491.882812 199.949219 492 199.582031 C 492.117188 199.214844 492.257812 198.867188 492.429688 198.535156 C 492.597656 198.207031 492.792969 197.898438 493.007812 197.617188 C 493.222656 197.335938 493.460938 197.085938 493.714844 196.867188 C 493.96875 196.644531 494.234375 196.457031 494.519531 196.308594 C 494.800781 196.15625 495.09375 196.039062 495.390625 195.960938 C 495.691406 195.886719 495.996094 195.847656 496.300781 195.847656 C 496.605469 195.847656 496.910156 195.886719 497.207031 195.960938 C 497.507812 196.039062 497.800781 196.15625 498.082031 196.308594 C 498.363281 196.457031 498.632812 196.644531 498.886719 196.867188 C 499.140625 197.085938 499.375 197.335938 499.59375 197.617188 C 499.808594 197.898438 500 198.207031 500.171875 198.535156 C 500.339844 198.867188 500.484375 199.214844 500.601562 199.582031 C 500.71875 199.949219 500.808594 200.328125 500.867188 200.71875 C 500.925781 201.105469 500.957031 201.5 500.957031 201.898438 Z M 500.957031 201.898438 " fill-opacity="1" fill-rule="nonzero"/><path fill="#121d3f" d="M 466.160156 201.898438 C 466.160156 202.296875 466.128906 202.6875 466.070312 203.078125 C 466.011719 203.46875 465.921875 203.847656 465.804688 204.214844 C 465.6875 204.582031 465.542969 204.929688 465.375 205.261719 C 465.203125 205.589844 465.011719 205.894531 464.796875 206.175781 C 464.578125 206.457031 464.34375 206.710938 464.089844 206.929688 C 463.835938 207.152344 463.566406 207.335938 463.285156 207.488281 C 463.003906 207.640625 462.710938 207.757812 462.410156 207.832031 C 462.113281 207.910156 461.808594 207.949219 461.503906 207.949219 C 461.199219 207.949219 460.894531 207.910156 460.59375 207.832031 C 460.296875 207.757812 460.003906 207.640625 459.722656 207.488281 C 459.4375 207.335938 459.171875 207.152344 458.917969 206.929688 C 458.664062 206.710938 458.425781 206.457031 458.210938 206.175781 C 457.996094 205.894531 457.800781 205.589844 457.632812 205.261719 C 457.460938 204.929688 457.320312 204.582031 457.203125 204.214844 C 457.085938 203.847656 456.996094 203.46875 456.9375 203.078125 C 456.878906 202.6875 456.847656 202.296875 456.847656 201.898438 C 456.847656 201.5 456.878906 201.105469 456.9375 200.71875 C 456.996094 200.328125 457.085938 199.949219 457.203125 199.582031 C 457.320312 199.214844 457.460938 198.867188 457.632812 198.535156 C 457.800781 198.207031 457.996094 197.898438 458.210938 197.617188 C 458.425781 197.335938 458.664062 197.085938 458.917969 196.867188 C 459.171875 196.644531 459.4375 196.457031 459.722656 196.308594 C 460.003906 196.15625 460.296875 196.039062 460.59375 195.960938 C 460.894531 195.886719 461.199219 195.847656 461.503906 195.847656 C 461.808594 195.847656 462.113281 195.886719 462.410156 195.960938 C 462.710938 196.039062 463.003906 196.15625 463.285156 196.308594 C 463.566406 196.457031 463.835938 196.644531 464.089844 196.867188 C 464.34375 197.085938 464.578125 197.335938 464.796875 197.617188 C 465.011719 197.898438 465.203125 198.207031 465.375 198.535156 C 465.542969 198.867188 465.6875 199.214844 465.804688 199.582031 C 465.921875 199.949219 466.011719 200.328125 466.070312 200.71875 C 466.128906 201.105469 466.160156 201.5 466.160156 201.898438 Z M 466.160156 201.898438 " fill-opacity="1" fill-rule="nonzero"/><path fill="#121d3f" d="M 469.527344 187.984375 C 469.527344 187.984375 471.679688 187.972656 471.792969 189.515625 C 471.914062 191.230469 472.117188 192.0625 471.101562 192.421875 C 470.085938 192.78125 460.265625 192.054688 454.921875 192.011719 C 449.519531 191.972656 447.148438 192.269531 446.820312 191.710938 C 446.492188 191.15625 451.164062 188.433594 456.621094 188.191406 C 462.976562 187.910156 462.832031 187.875 469.527344 187.984375 Z M 469.527344 187.984375 " fill-opacity="1" fill-rule="nonzero"/><path fill="#121d3f" d="M 486.882812 188.085938 C 486.882812 188.085938 484.730469 188.09375 484.632812 189.640625 C 484.527344 191.355469 484.332031 192.191406 485.351562 192.539062 C 486.371094 192.886719 496.183594 192.0625 501.527344 191.96875 C 506.929688 191.875 509.300781 192.144531 509.625 191.585938 C 509.949219 191.027344 505.25 188.351562 499.789062 188.164062 C 493.429688 187.945312 493.574219 187.910156 486.882812 188.085938 Z M 486.882812 188.085938 " fill-opacity="1" fill-rule="nonzero"/><path fill="#914d4d" d="M 447.644531 215.789062 C 447.644531 215.789062 449.316406 211.597656 458.347656 211.722656 C 465.6875 211.824219 471.207031 213.019531 471.140625 218.160156 C 471.628906 224.828125 443.773438 226.101562 447.644531 215.789062 Z M 447.644531 215.789062 " fill-opacity="1" fill-rule="nonzero"/><path fill="#914d4d" d="M 484.734375 215.789062 C 484.734375 215.789062 486.40625 211.597656 495.433594 211.722656 C 502.773438 211.824219 508.296875 213.019531 508.230469 218.160156 C 508.714844 224.828125 480.863281 226.101562 484.734375 215.789062 Z M 484.734375 215.789062 " fill-opacity="1" fill-rule="nonzero"/><path fill="#723333" d="M 477.542969 225.671875 C 479.554688 225.558594 481.132812 225.984375 481.207031 224.121094 C 481.140625 223.386719 480.492188 222.84375 479.757812 222.90625 C 477.992188 223.0625 474.675781 223.070312 473.300781 222.425781 C 473.234375 221.726562 473.816406 220.378906 474.058594 219.488281 C 478.070312 206.398438 478.800781 199.816406 478.832031 199.542969 C 478.910156 198.808594 478.378906 198.148438 477.644531 198.070312 C 476.910156 197.992188 476.25 198.523438 476.171875 199.257812 C 476.160156 199.367188 475.410156 205.941406 471.5 218.703125 C 471.382812 219.089844 471.269531 219.445312 471.164062 219.769531 C 468.941406 225.117188 473.253906 225.613281 477.542969 225.671875 Z M 477.542969 225.671875 " fill-opacity="1" fill-rule="nonzero"/><path fill="#723333" d="M 474.0625 239.777344 C 470.101562 239.386719 467.3125 238.621094 467.070312 238.554688 C 466.398438 238.363281 466.007812 237.667969 466.195312 236.996094 C 466.386719 236.324219 467.082031 235.933594 467.753906 236.121094 C 467.875 236.152344 479.808594 239.421875 489.414062 235.613281 C 490.0625 235.355469 490.796875 235.671875 491.054688 236.320312 C 491.308594 236.96875 490.992188 237.703125 490.34375 237.960938 C 484.765625 240.171875 478.632812 240.226562 474.0625 239.777344 Z M 474.0625 239.777344 " fill-opacity="1" fill-rule="nonzero"/><path fill="#914d4d" d="M 479.410156 245.339844 C 476.980469 245.535156 475.117188 244.859375 475.015625 244.820312 C 474.515625 244.636719 474.261719 244.078125 474.449219 243.578125 C 474.632812 243.078125 475.1875 242.824219 475.6875 243.007812 C 475.730469 243.023438 478.410156 243.972656 481.257812 243.003906 C 481.761719 242.832031 482.3125 243.101562 482.484375 243.609375 C 482.65625 244.113281 482.382812 244.664062 481.878906 244.835938 C 481.023438 245.125 480.1875 245.277344 479.410156 245.339844 Z M 479.410156 245.339844 " fill-opacity="1" fill-rule="nonzero"/><path fill="#121d3f" d="M 469.636719 156.21875 C 469.636719 156.21875 479.472656 173.515625 497.855469 172.265625 C 513.730469 171.1875 519.328125 182.519531 519.007812 187.261719 C 518.691406 192.003906 519.796875 201.644531 522.121094 206.882812 C 522.121094 206.882812 524.359375 197.390625 529.644531 195.203125 C 551.308594 129.855469 460.40625 92.460938 431.722656 151.699219 C 422.804688 163.976562 424.773438 180.234375 427.382812 196.695312 C 427.382812 196.695312 433.945312 196.761719 437.953125 208.3125 C 437.722656 197.65625 435.773438 178.703125 442.160156 165.65625 C 444.058594 161.167969 458.703125 163.699219 469.636719 156.21875 Z M 469.636719 156.21875 " fill-opacity="1" fill-rule="nonzero"/><path fill="#121d3f" d="M 469.636719 156.21875 C 469.636719 156.21875 465.511719 163.566406 461.503906 163.566406 C 457.492188 163.566406 454.074219 161.464844 452.371094 165.191406 C 450.667969 168.914062 450.339844 172.417969 447.277344 172.234375 C 444.214844 172.050781 440.890625 175.738281 441.628906 179.429688 C 442.367188 183.117188 444.007812 187.515625 440.753906 190.296875 C 437.496094 193.078125 437.585938 201.019531 437.585938 201.019531 C 437.585938 201.019531 430.417969 188.46875 432.242188 179.429688 C 434.066406 170.390625 432.039062 158.464844 443.105469 156.21875 C 454.171875 153.972656 469.636719 156.21875 469.636719 156.21875 Z M 469.636719 156.21875 " fill-opacity="1" fill-rule="nonzero"/><path fill="#121d3f" d="M 469.636719 156.21875 C 469.636719 156.21875 470.039062 166.96875 483.320312 172.789062 C 486.71875 174.277344 488.902344 173.972656 491.644531 174.027344 C 494.386719 174.078125 495.308594 175.003906 498.996094 176.847656 C 502.6875 178.691406 504.632812 179.246094 507.164062 178.875 C 509.695312 178.507812 513.199219 179.429688 513.753906 182.933594 C 514.308594 186.4375 512.832031 188.992188 515.414062 190.296875 C 517.996094 191.601562 516.871094 204.351562 521.308594 201.019531 C 521.308594 201.019531 528.214844 188.652344 526.796875 180.351562 C 525.375 172.050781 483.023438 155.296875 469.636719 156.21875 Z M 469.636719 156.21875 " fill-opacity="1" fill-rule="nonzero"/><path fill="#121d3f" d="M 470.558594 122.066406 C 470.558594 122.066406 452.144531 123.929688 448.457031 126.75 C 444.765625 129.566406 442.589844 131.285156 437.039062 133.253906 C 431.484375 135.222656 425.765625 139.402344 425.183594 144.8125 C 424.597656 150.222656 423.121094 153.914062 418.941406 156.125 C 414.761719 158.339844 408.4375 168.667969 411.109375 172.359375 C 413.777344 176.046875 413.113281 181.703125 411.109375 185.886719 C 409.105469 190.066406 411.527344 200.765625 413.285156 203.347656 C 415.042969 205.925781 414.761719 211.867188 414.761719 211.867188 C 414.761719 211.867188 424.351562 180.511719 435.175781 164.875 C 445.996094 149.242188 470.558594 122.066406 470.558594 122.066406 Z M 470.558594 122.066406 " fill-opacity="1" fill-rule="nonzero"/><path fill="#121d3f" d="M 459.351562 125.296875 C 459.351562 125.296875 471.027344 120.21875 477.695312 119.726562 C 484.363281 119.234375 487.589844 122.097656 491.140625 122.511719 C 494.695312 122.925781 504.070312 123.570312 508.238281 126.816406 C 512.402344 130.058594 512.140625 133.5 517.191406 134.976562 C 522.238281 136.453125 528.695312 141.371094 530.140625 145.550781 C 531.585938 149.730469 533.449219 153.914062 537.4375 156.617188 C 541.421875 159.324219 544.203125 166.761719 543.144531 171.621094 C 542.089844 176.476562 546.859375 182.441406 547.707031 186.621094 C 548.554688 190.804688 542.726562 201.308594 543.003906 202.488281 C 543.285156 203.667969 539.714844 183.710938 526.796875 166.96875 C 513.878906 150.222656 459.351562 125.296875 459.351562 125.296875 Z M 459.351562 125.296875 " fill-opacity="1" fill-rule="nonzero"/><path fill="#9e5959" d="M 521.308594 201.019531 C 521.308594 201.019531 525.949219 192.976562 532.222656 194.988281 C 537.601562 196.710938 535.597656 217.007812 526.164062 226.308594 C 516.207031 236.128906 516.683594 212.605469 521.308594 201.019531 Z M 521.308594 201.019531 " fill-opacity="1" fill-rule="nonzero"/><path fill="#723333" d="M 530.738281 202.160156 C 530.585938 201.652344 530.050781 201.363281 529.542969 201.515625 C 523.804688 203.246094 522.894531 216.921875 522.8125 218.476562 C 522.78125 219.007812 523.1875 219.460938 523.71875 219.488281 C 524.28125 219.492188 524.703125 219.09375 524.730469 218.582031 C 524.804688 217.269531 524.960938 215.75 525.207031 214.183594 C 526.042969 212.902344 527.6875 210.902344 528.859375 210.59375 C 529.371094 210.457031 529.675781 209.933594 529.542969 209.417969 C 529.40625 208.90625 528.882812 208.597656 528.367188 208.734375 C 527.554688 208.949219 526.75 209.519531 526.03125 210.1875 C 526.917969 206.804688 528.261719 203.910156 530.097656 203.359375 C 530.605469 203.203125 530.894531 202.667969 530.738281 202.160156 Z M 530.738281 202.160156 " fill-opacity="1" fill-rule="nonzero"/><path fill="#9e5959" d="M 437.585938 201.019531 C 437.585938 201.019531 432.945312 192.976562 426.671875 194.988281 C 421.289062 196.710938 423.296875 217.007812 432.730469 226.308594 C 442.6875 236.128906 442.210938 212.605469 437.585938 201.019531 Z M 437.585938 201.019531 " fill-opacity="1" fill-rule="nonzero"/><path fill="#723333" d="M 436.082031 218.476562 C 435.996094 216.921875 435.089844 203.246094 429.351562 201.515625 C 428.84375 201.363281 428.308594 201.652344 428.152344 202.160156 C 428 202.667969 428.289062 203.203125 428.796875 203.359375 C 430.628906 203.910156 431.972656 206.804688 432.863281 210.1875 C 432.144531 209.519531 431.335938 208.949219 430.523438 208.734375 C 430.011719 208.597656 429.484375 208.90625 429.351562 209.417969 C 429.214844 209.933594 429.523438 210.457031 430.035156 210.59375 C 431.207031 210.902344 432.851562 212.902344 433.6875 214.183594 C 433.933594 215.75 434.089844 217.269531 434.164062 218.582031 C 434.191406 219.09375 434.613281 219.492188 435.121094 219.492188 C 435.703125 219.460938 436.109375 219.007812 436.082031 218.476562 Z M 436.082031 218.476562 " fill-opacity="1" fill-rule="nonzero"/><path fill="#ffffff" d="M 414.402344 466.761719 C 402.039062 464.660156 412.714844 439.273438 408.910156 420.96875 C 407.253906 412.984375 403.039062 409.933594 401.960938 395.394531 C 400.882812 380.859375 408.546875 363.816406 408.546875 363.816406 C 411.90625 361.238281 415.152344 356.089844 415.714844 341.824219 C 416.28125 327.554688 414.800781 290.371094 414.800781 290.371094 C 417.25 285.914062 455.296875 277.804688 455.296875 277.804688 C 454.921875 307.871094 508.285156 306.925781 503.644531 275.917969 C 511.617188 278.644531 529.820312 281.710938 529.820312 281.710938 C 526.703125 344.660156 540.128906 354.386719 549.585938 362.128906 C 558.082031 372.46875 560.855469 406.667969 554.523438 418.007812 C 552.554688 423.121094 553.53125 447.082031 554.386719 455.425781 C 555.246094 463.773438 550.5 466.761719 550.5 466.761719 C 550.5 466.761719 532.082031 473.015625 514.132812 473.914062 C 496.1875 474.808594 485.78125 473.296875 475.007812 473.914062 C 453.351562 474.488281 429.550781 476.460938 414.402344 466.761719 Z M 414.402344 466.761719 " fill-opacity="1" fill-rule="nonzero"/><path fill="#ededed" d="M 414.402344 466.761719 C 414.402344 466.761719 422.648438 472.015625 437.945312 474.203125 C 444.699219 475.171875 454.121094 474.367188 462.179688 474.550781 C 466.171875 474.644531 470.882812 474.148438 475.007812 473.914062 C 485.78125 473.296875 496.1875 474.808594 514.132812 473.914062 C 532.082031 473.015625 550.5 466.761719 550.5 466.761719 C 550.5 466.761719 554.839844 464.023438 554.464844 456.480469 L 408.675781 447.136719 C 407.773438 457.363281 407.585938 465.601562 414.402344 466.761719 Z M 414.402344 466.761719 " fill-opacity="1" fill-rule="nonzero"/><path fill="#e5e5e5" d="M 554.523438 418.007812 C 552.558594 423.121094 553.527344 447.082031 554.386719 455.425781 C 555.246094 463.773438 550.5 466.761719 550.5 466.761719 C 550.5 466.761719 534.492188 472.195312 517.78125 473.660156 C 517.261719 471.628906 516.738281 469.375 516.253906 466.917969 C 514.40625 457.582031 513.035156 445.304688 513.949219 431.015625 C 516.058594 397.9375 498.683594 350.765625 502.554688 331.046875 C 505.867188 314.15625 504.304688 285.75 503.789062 277.953125 C 503.773438 277.25 503.730469 276.699219 503.695312 276.347656 C 511.382812 277.476562 519.03125 279.265625 529.808594 281.707031 C 525.222656 339.242188 542.492188 356.359375 545.453125 359.054688 C 548.414062 361.746094 549.585938 362.128906 549.585938 362.128906 C 549.585938 362.128906 553.796875 367.199219 557.03125 383.101562 C 560.261719 399 556.492188 412.894531 554.523438 418.007812 Z M 554.523438 418.007812 " fill-opacity="1" fill-rule="nonzero"/><path fill="#e5e5e5" d="M 451.789062 338.734375 C 454.144531 319.984375 448.617188 279.304688 448.617188 279.304688 C 437.585938 281.859375 416.597656 287.097656 414.800781 290.371094 C 414.800781 290.371094 416.28125 327.554688 415.714844 341.824219 C 415.152344 356.089844 411.90625 361.238281 408.546875 363.816406 C 408.546875 363.816406 400.882812 380.859375 401.960938 395.394531 C 403.039062 409.933594 407.253906 412.984375 408.910156 420.96875 C 412.714844 439.273438 402.039062 464.660156 414.402344 466.761719 C 414.402344 466.761719 422.648438 472.015625 437.945312 474.203125 C 438.792969 474.324219 439.695312 474.414062 440.636719 474.472656 C 445.957031 451.855469 441.808594 415.910156 441.808594 415.910156 C 441.808594 415.910156 440.476562 403.65625 441.148438 391.648438 C 441.824219 379.640625 449.429688 357.480469 451.789062 338.734375 Z M 451.789062 338.734375 " fill-opacity="1" fill-rule="nonzero"/><path fill="#e5e5e5" d="M 414.613281 411.867188 C 414.613281 411.867188 439.382812 427.804688 464.957031 411.867188 C 464.957031 411.867188 442.210938 418.453125 414.613281 411.867188 Z M 414.613281 411.867188 " fill-opacity="1" fill-rule="nonzero"/><path fill="#e5e5e5" d="M 463.796875 390.269531 C 462.976562 381.613281 460.980469 374.007812 457.867188 367.671875 C 455.34375 362.546875 452.089844 358.230469 448.191406 354.847656 C 441.480469 349.023438 435.203125 347.984375 434.941406 347.941406 C 434.804688 347.921875 434.664062 347.917969 434.527344 347.929688 C 434.285156 347.949219 428.519531 348.488281 421.894531 353.410156 C 415.894531 357.863281 407.96875 366.953125 404.265625 384.953125 C 400.976562 400.953125 404.355469 413.949219 407.773438 422.035156 C 411.03125 429.738281 414.867188 434.5 415.886719 435.695312 C 416.199219 438.257812 419.195312 441.8125 421.101562 442.976562 C 423.457031 444.417969 426.539062 443.679688 427.980469 441.320312 C 429.421875 438.964844 428.679688 435.886719 426.324219 434.445312 C 424.574219 433.375 420.613281 432.402344 418.101562 432.9375 C 416.800781 431.3125 413.613281 426.996094 410.90625 420.554688 C 407.714844 412.945312 404.558594 400.714844 407.660156 385.652344 C 410.394531 372.359375 415.964844 362.21875 423.773438 356.328125 C 428.96875 352.40625 433.59375 351.550781 434.613281 351.40625 C 435.699219 351.636719 440.765625 352.921875 446.089844 357.605469 C 454.035156 364.601562 458.96875 376.007812 460.347656 390.59375 C 461.824219 406.175781 458.492188 417.011719 455.4375 423.363281 C 452.914062 428.609375 450.160156 431.738281 448.984375 432.9375 C 446.472656 432.402344 442.511719 433.375 440.761719 434.445312 C 438.40625 435.886719 437.664062 438.964844 439.105469 441.320312 C 440.546875 443.679688 443.625 444.417969 445.980469 442.976562 C 447.90625 441.800781 450.945312 438.183594 451.203125 435.617188 C 452.453125 434.390625 455.582031 430.976562 458.460938 425.066406 C 461.757812 418.292969 465.359375 406.761719 463.796875 390.269531 Z M 463.796875 390.269531 " fill-opacity="1" fill-rule="nonzero"/><path fill="#d9c6b6" d="M 497.640625 411.867188 C 523.214844 427.804688 547.980469 411.867188 547.980469 411.867188 C 547.980469 411.867188 535.105469 415.410156 522.808594 415.410156 C 510.515625 415.410156 497.640625 411.867188 497.640625 411.867188 Z M 497.640625 411.867188 " fill-opacity="1" fill-rule="nonzero"/><g clip-path="url(#336843d0a3)"><path fill="#75a8ff" d="M 447.058594 347.433594 C 442.625 364.90625 433.90625 386.863281 439.214844 414.792969 C 442.964844 434.859375 442.917969 453.101562 437.269531 472.085938 C 431.433594 492.34375 421.335938 507.304688 419.113281 529.78125 L 367.316406 529.78125 C 379.539062 494.261719 396.953125 467.707031 396.515625 429.164062 C 396.527344 425.410156 396.320312 421.574219 396.109375 417.828125 C 393.855469 384.863281 397.25 369.199219 399.535156 359.328125 C 401.929688 346.210938 386.140625 312.285156 395.050781 293.308594 C 395.050781 293.308594 395.054688 293.304688 395.058594 293.304688 C 395.46875 293.054688 416.617188 280.523438 448.617188 279.304688 C 448.835938 282.464844 451.863281 325.878906 447.058594 347.433594 Z M 447.058594 347.433594 " fill-opacity="1" fill-rule="nonzero"/></g><path fill="#5d95f5" d="M 434.816406 479.667969 C 440.785156 462.683594 444.558594 443.933594 439.328125 415.410156 C 439.007812 413.660156 438.738281 411.941406 438.511719 410.253906 L 395.914062 413.90625 C 396.015625 416.085938 396.132812 418.375 396.269531 420.785156 C 397.765625 447.136719 392.324219 466.3125 384.992188 485.042969 C 395.511719 484.019531 418.460938 481.730469 434.816406 479.667969 Z M 434.816406 479.667969 " fill-opacity="1" fill-rule="nonzero"/><g clip-path="url(#519c208af8)"><path fill="#75a8ff" d="M 589.417969 529.78125 L 538.144531 529.78125 C 530.816406 512.03125 521.0625 476.570312 518.550781 453.582031 C 518.085938 449.746094 517.699219 445.960938 517.410156 442.121094 C 516.679688 432.640625 516.507812 423.746094 517.273438 415.195312 C 520.347656 388.550781 513.667969 362.984375 510.128906 347.433594 C 505.710938 326.472656 507.371094 290.144531 507.980469 277.042969 C 540.171875 278.257812 564.269531 286.878906 564.210938 286.867188 C 578.617188 309.421875 555.320312 346.355469 557.648438 359.328125 C 560 371.507812 563.398438 379.796875 560.917969 420.785156 C 557.644531 460.34375 576.066406 493.230469 589.417969 529.78125 Z M 589.417969 529.78125 " fill-opacity="1" fill-rule="nonzero"/></g><path fill="#5d95f5" d="M 570.636719 480.96875 C 560.597656 481.886719 535.789062 479.066406 522.609375 477.4375 C 519.765625 464.796875 518.457031 454.535156 517.40625 442.121094 C 517.425781 442.121094 561.4375 444.25 561.464844 444.25 C 562.828125 457.011719 566.199219 469.167969 570.636719 480.96875 Z M 570.636719 480.96875 " fill-opacity="1" fill-rule="nonzero"/><path fill="#4f3e4f" d="M 524.425781 374.792969 C 520.855469 363.457031 520.121094 356.878906 521.707031 322.910156 C 522.175781 312.917969 521.558594 304.207031 519.878906 297.027344 C 518.515625 291.207031 516.453125 286.359375 513.746094 282.613281 C 509.003906 276.054688 503.90625 275.125 503.691406 275.089844 C 503.652344 275.082031 503.613281 275.078125 503.574219 275.078125 L 503.644531 275.917969 C 503.730469 276.535156 503.792969 277.136719 503.84375 277.734375 C 505.175781 278.175781 508.605469 279.699219 511.867188 284.316406 C 515.769531 289.84375 520.210938 301.003906 519.191406 322.792969 C 517.585938 357.164062 518.34375 363.875 522.023438 375.550781 C 527.941406 394.320312 528.632812 414.351562 528.171875 427.847656 C 527.671875 442.507812 525.738281 452.847656 525.71875 452.953125 C 525.589844 453.636719 526.039062 454.292969 526.722656 454.425781 C 526.800781 454.4375 526.878906 454.445312 526.957031 454.445312 C 527.550781 454.445312 528.078125 454.023438 528.191406 453.421875 C 528.214844 453.316406 530.175781 442.824219 530.6875 427.984375 C 531.160156 414.277344 530.457031 393.917969 524.425781 374.792969 Z M 524.425781 374.792969 " fill-opacity="1" fill-rule="nonzero"/><path fill="#293263" d="M 532.382812 454.394531 C 531.542969 461.085938 526.023438 466.746094 526.023438 466.746094 C 526.023438 466.746094 523.679688 466.769531 523.328125 466.726562 C 519.242188 466.214844 516.675781 459.863281 517.59375 452.542969 C 518.507812 445.21875 522.5625 439.699219 526.648438 440.210938 C 526.761719 440.222656 528.648438 440.195312 528.648438 440.195312 C 528.648438 440.195312 533.273438 447.273438 532.382812 454.394531 Z M 532.382812 454.394531 " fill-opacity="1" fill-rule="nonzero"/><path fill="#323c7a" d="M 534.523438 454.394531 C 533.605469 461.714844 529.550781 467.238281 525.464844 466.726562 C 521.382812 466.214844 518.8125 459.863281 519.730469 452.542969 C 520.648438 445.21875 524.703125 439.699219 528.789062 440.210938 C 532.871094 440.722656 535.441406 447.070312 534.523438 454.394531 Z M 534.523438 454.394531 " fill-opacity="1" fill-rule="nonzero"/><path fill="#9e5959" d="M 538.953125 313.046875 C 539.558594 299.007812 551.429688 288.117188 565.46875 288.71875 C 576.433594 289.191406 585.480469 296.539062 588.625 306.421875 C 588.625 306.421875 593.300781 314.101562 591.457031 345.621094 C 589.617188 377.136719 587.097656 392.054688 588.828125 407.582031 C 590.558594 423.113281 593.507812 441.085938 591.542969 449.160156 C 591.035156 460.902344 581.105469 470.015625 569.359375 469.511719 C 558.847656 469.058594 550.449219 461.054688 549.160156 450.960938 L 548.894531 450.972656 C 548.894531 450.972656 547.679688 429.53125 547.339844 404.242188 C 547.019531 380.148438 540.898438 337.277344 539.609375 320.003906 C 539.082031 317.777344 538.851562 315.441406 538.953125 313.046875 Z M 538.953125 313.046875 " fill-opacity="1" fill-rule="nonzero"/><path fill="#75a8ff" d="M 570.089844 288.105469 C 570.089844 288.105469 583.507812 291.6875 589.121094 303.835938 C 594.738281 315.988281 593.625 347.476562 592.863281 373.691406 C 592.101562 399.90625 594.144531 437.179688 593.527344 451.554688 C 592.910156 465.925781 579.730469 471.417969 570.03125 472.257812 C 560.335938 473.09375 548.285156 464.921875 545.328125 451.121094 C 542.367188 437.324219 543.242188 378.847656 541.84375 364.753906 C 540.445312 350.65625 534.363281 313.636719 539.398438 302.703125 C 544.433594 291.769531 557.496094 283.707031 570.089844 288.105469 Z M 570.089844 288.105469 " fill-opacity="1" fill-rule="nonzero"/><path fill="#5d95f5" d="M 543.105469 413.503906 C 543.21875 419.039062 543.359375 424.464844 543.550781 429.453125 L 570.445312 426.472656 C 563.320312 418.453125 544.625 413.867188 543.105469 413.503906 Z M 543.105469 413.503906 " fill-opacity="1" fill-rule="nonzero"/><path fill="#5d95f5" d="M 553.59375 335.511719 C 553.59375 335.511719 550.914062 352.035156 550.753906 362.234375 C 550.597656 372.433594 549.136719 412.5625 546.609375 429.164062 L 537.863281 429.164062 C 537.863281 429.164062 545.730469 397.035156 545.21875 371.945312 C 544.980469 360.253906 548.089844 346.914062 553.59375 335.511719 Z M 553.59375 335.511719 " fill-opacity="1" fill-rule="nonzero"/><path fill="#9e5959" d="M 425.085938 319.5625 C 425.085938 305.507812 413.695312 294.117188 399.640625 294.117188 C 388.664062 294.117188 379.3125 301.070312 375.742188 310.808594 C 375.742188 310.808594 370.746094 318.285156 371.230469 349.851562 C 371.714844 381.417969 373.59375 396.429688 371.195312 411.867188 C 368.800781 427.308594 365.082031 445.140625 366.699219 453.289062 C 366.699219 465.046875 376.230469 474.574219 387.984375 474.574219 C 398.507812 474.574219 407.246094 466.941406 408.964844 456.910156 L 409.230469 456.933594 C 409.230469 456.933594 411.363281 435.566406 412.789062 410.3125 C 414.144531 386.253906 422.101562 343.6875 424.128906 326.484375 C 424.753906 324.28125 425.085938 321.960938 425.085938 319.5625 Z M 425.085938 319.5625 " fill-opacity="1" fill-rule="nonzero"/><path fill="#75a8ff" d="M 395.050781 293.304688 C 395.050781 293.304688 381.488281 296.308594 375.359375 308.207031 C 369.226562 320.105469 368.984375 351.609375 368.621094 377.835938 C 368.253906 404.058594 364.613281 441.210938 364.613281 455.597656 C 364.613281 469.984375 377.542969 476.035156 387.195312 477.289062 C 396.847656 478.542969 409.242188 470.894531 412.789062 457.238281 C 416.335938 443.578125 417.976562 385.121094 419.976562 371.097656 C 421.980469 357.074219 429.644531 320.347656 425.085938 309.210938 C 420.523438 298.070312 407.820312 289.453125 395.050781 293.304688 Z M 395.050781 293.304688 " fill-opacity="1" fill-rule="nonzero"/><path fill="#5d95f5" d="M 412.671875 335.511719 C 412.671875 335.511719 415.355469 352.035156 415.511719 362.234375 C 415.667969 372.433594 409.640625 412.5625 412.167969 429.164062 L 422.449219 429.164062 C 422.449219 429.164062 419.636719 382.167969 420.273438 373.214844 C 420.910156 364.265625 418.175781 346.914062 412.671875 335.511719 Z M 412.671875 335.511719 " fill-opacity="1" fill-rule="nonzero"/><path fill="#5d95f5" d="M 415.988281 429.164062 C 416.34375 424.183594 416.679688 418.945312 417 413.707031 C 405.914062 418.289062 392.65625 429.164062 392.65625 429.164062 Z M 415.988281 429.164062 " fill-opacity="1" fill-rule="nonzero"/><path fill="#9e5959" d="M 572.09375 469.328125 C 572.09375 469.328125 554.1875 471.152344 526.113281 464.753906 C 498.039062 458.355469 442.03125 440.175781 435.65625 439.898438 C 429.277344 439.617188 425.582031 419.433594 442.019531 420.703125 C 458.457031 421.96875 486.039062 424.640625 500.957031 424.796875 C 515.878906 424.957031 557.191406 423.972656 568.332031 430 C 579.46875 436.027344 585.640625 461.226562 572.09375 469.328125 Z M 572.09375 469.328125 " fill-opacity="1" fill-rule="nonzero"/><path fill="#9e5959" d="M 445.910156 421.011719 C 445.910156 421.011719 438.6875 419.554688 436.617188 416.074219 C 434.542969 412.589844 424.03125 398.242188 422.605469 397.003906 C 421.179688 395.769531 412.28125 388.730469 410.515625 387.882812 C 408.75 387.035156 397.480469 383.292969 395.1875 382.277344 C 392.894531 381.257812 389.265625 380.007812 388.585938 380.730469 C 387.90625 381.453125 388.710938 384.195312 391.875 385.917969 C 395.039062 387.640625 401.050781 390.015625 401.050781 390.015625 L 410.882812 398.203125 C 410.882812 398.203125 402.054688 395.664062 400.03125 395.441406 C 398.011719 395.21875 386.089844 402.136719 385.542969 403.035156 C 385 403.933594 386.347656 405.417969 387.621094 405.574219 C 387.621094 405.574219 382.230469 408.652344 381.832031 409.898438 C 381.433594 411.144531 383.480469 412.84375 388.074219 411.9375 C 392.113281 411.136719 396.136719 409.957031 396.136719 409.957031 L 406.554688 413.480469 C 406.554688 413.480469 406.152344 413.875 404.34375 414.125 C 402.535156 414.375 395.53125 415.320312 394.363281 415.910156 C 393.191406 416.496094 389.84375 420.75 389.910156 421.71875 C 389.980469 422.6875 393.15625 422.828125 397.222656 420.105469 C 397.222656 420.105469 400.472656 419.472656 401.855469 420.105469 C 403.242188 420.738281 406.945312 421.605469 409.054688 422.1875 C 411.164062 422.769531 415.972656 429.972656 420.570312 434.152344 C 425.171875 438.328125 428.777344 440.386719 435.65625 439.898438 C 442.53125 439.410156 461.234375 428.296875 445.910156 421.011719 Z M 445.910156 421.011719 " fill-opacity="1" fill-rule="nonzero"/><path fill="#723333" d="M 418.28125 401.652344 C 415.855469 400.363281 413.136719 399.820312 410.882812 398.203125 C 412.445312 397.707031 414.335938 399.058594 415.757812 399.851562 C 416.511719 400.40625 417.90625 401.007812 418.28125 401.652344 Z M 418.28125 401.652344 " fill-opacity="1" fill-rule="nonzero"/><path fill="#723333" d="M 414.082031 408.84375 C 409.644531 405.765625 404.503906 404 399.238281 402.984375 C 395.394531 403.835938 391.496094 405.09375 387.621094 405.574219 C 389.195312 404.800781 390.9375 404.3125 392.617188 403.738281 C 394.773438 403.085938 396.941406 402.398438 399.191406 402.117188 C 404.421875 403.324219 410.214844 405.390625 414.082031 408.84375 Z M 414.082031 408.84375 " fill-opacity="1" fill-rule="nonzero"/><path fill="#723333" d="M 412.863281 415.667969 C 410.875 414.5625 408.476562 414.6875 406.554688 413.480469 C 407.816406 412.496094 412.183594 414.59375 412.863281 415.667969 Z M 412.863281 415.667969 " fill-opacity="1" fill-rule="nonzero"/><path fill="#944a4a" d="M 397.195312 420.148438 C 396.792969 420.09375 396.261719 419.832031 396.132812 419.429688 C 396.1875 418.878906 396.617188 418.8125 397.03125 419.097656 C 397.117188 419.394531 397.078125 419.753906 397.246094 420.066406 C 397.269531 420.101562 397.238281 420.148438 397.195312 420.148438 Z M 397.195312 420.148438 " fill-opacity="1" fill-rule="nonzero"/><path fill="#944a4a" d="M 396.09375 409.980469 C 395.707031 409.550781 395.21875 409.117188 394.992188 408.589844 C 394.980469 408.371094 395.015625 407.933594 395.261719 407.859375 C 395.75 407.964844 396.027344 408.285156 396.011719 408.765625 C 396.019531 408.949219 396.320312 410.015625 396.09375 409.980469 Z M 396.09375 409.980469 " fill-opacity="1" fill-rule="nonzero"/><path fill="#944a4a" d="M 399.261719 402.578125 C 399.011719 402.414062 398.777344 402.195312 398.582031 401.972656 C 398.488281 401.859375 398.316406 401.777344 398.324219 401.605469 C 398.328125 401.40625 398.449219 401.070312 398.675781 401.023438 C 399.035156 401.074219 399.363281 401.253906 399.277344 401.652344 C 399.265625 401.804688 399.460938 402.605469 399.261719 402.578125 Z M 399.261719 402.578125 " fill-opacity="1" fill-rule="nonzero"/><path fill="#944a4a" d="M 401.003906 390.027344 C 400.742188 389.679688 400.394531 389.242188 400.410156 388.796875 C 400.660156 388.234375 401.105469 388.34375 401.367188 388.8125 C 401.378906 388.894531 401.113281 390.195312 401.003906 390.027344 Z M 401.003906 390.027344 " fill-opacity="1" fill-rule="nonzero"/><path fill="#944a4a" d="M 400.074219 395.464844 C 399.988281 396.003906 399.796875 396.535156 399.726562 397.074219 C 399.648438 397.449219 399.410156 397.59375 399.011719 397.800781 C 398.71875 397.722656 398.707031 397.238281 398.726562 397 C 398.695312 396.808594 400 395.191406 400.074219 395.464844 Z M 400.074219 395.464844 " fill-opacity="1" fill-rule="nonzero"/><path fill="#944a4a" d="M 399.34375 402.578125 C 399.046875 403.335938 398.828125 404.164062 398.46875 404.882812 C 398.261719 405.089844 397.648438 405.796875 397.582031 405.152344 C 397.386719 404.429688 397.953125 403.925781 398.371094 403.429688 C 398.542969 403.296875 399.222656 402.367188 399.34375 402.578125 Z M 399.34375 402.578125 " fill-opacity="1" fill-rule="nonzero"/><path fill="#944a4a" d="M 394.410156 415.917969 C 394.496094 416.351562 394.710938 416.742188 394.835938 417.132812 C 394.726562 417.449219 394.570312 417.898438 394.140625 417.601562 C 393.558594 417.484375 394.117188 415.8125 394.410156 415.917969 Z M 394.410156 415.917969 " fill-opacity="1" fill-rule="nonzero"/><path fill="#944a4a" d="M 392.179688 418.0625 C 392.679688 418.585938 393.390625 419.636719 392.75 420.28125 C 392.222656 420.789062 392.128906 420.117188 392.03125 419.796875 C 392.132812 419.246094 392.210938 418.691406 392.097656 418.109375 C 392.085938 418.066406 392.148438 418.03125 392.179688 418.0625 Z M 392.179688 418.0625 " fill-opacity="1" fill-rule="nonzero"/><path fill="#944a4a" d="M 385.933594 406.609375 C 386.453125 407.675781 386.480469 410.417969 384.800781 410.03125 C 384.964844 409.242188 385.261719 408.886719 385.550781 408.222656 C 385.714844 407.703125 385.808594 407.175781 385.839844 406.625 C 385.84375 406.574219 385.917969 406.5625 385.933594 406.609375 Z M 385.933594 406.609375 " fill-opacity="1" fill-rule="nonzero"/><path fill="#944a4a" d="M 389.9375 400.148438 C 390.25 401.289062 390.214844 404.207031 388.492188 403.679688 C 388.785156 402.835938 389.15625 402.375 389.453125 401.59375 C 389.632812 401.355469 389.738281 400.058594 389.9375 400.148438 Z M 389.9375 400.148438 " fill-opacity="1" fill-rule="nonzero"/><path fill="#944a4a" d="M 394.546875 382.027344 C 393.859375 382.914062 391.730469 384.25 391.105469 382.804688 C 391.863281 382.367188 392.441406 382.535156 393.210938 382.375 C 393.484375 382.410156 394.527344 381.820312 394.546875 382.027344 Z M 394.546875 382.027344 " fill-opacity="1" fill-rule="nonzero"/><path fill="#944a4a" d="M 404.296875 385.617188 C 404.023438 385.976562 403.660156 386.257812 403.371094 386.601562 C 403.152344 386.832031 402.65625 386.785156 402.445312 386.550781 C 402.421875 386.089844 402.71875 385.726562 403.179688 385.726562 C 403.355469 385.707031 404.316406 385.386719 404.296875 385.617188 Z M 404.296875 385.617188 " fill-opacity="1" fill-rule="nonzero"/><path fill="#75a8ff" d="M 576.742188 471.019531 C 576.742188 471.019531 562.921875 475.511719 534.191406 472.023438 C 505.457031 468.539062 434.457031 453.308594 434.457031 453.308594 C 434.457031 453.308594 430.011719 427.699219 448.675781 414.078125 C 448.675781 414.078125 514.015625 417.726562 527.636719 418.769531 C 541.257812 419.808594 570.828125 422.277344 581.460938 433.207031 C 591.898438 443.9375 588.902344 463.636719 576.742188 471.019531 Z M 576.742188 471.019531 " fill-opacity="1" fill-rule="nonzero"/><path fill="#5d95f5" d="M 527.636719 418.769531 C 514.015625 417.726562 445.527344 418.492188 445.527344 418.492188 C 426.867188 432.117188 434.457031 453.308594 434.457031 453.308594 C 434.457031 453.308594 460.84375 458.96875 487.953125 464.179688 L 532.617188 451.589844 C 532.617188 451.589844 534.011719 442.363281 533.359375 436.292969 C 533.359375 436.292969 543.753906 434.414062 546.609375 429.164062 C 548.5625 425.574219 550.792969 422.917969 552.011719 421.589844 C 542.78125 419.96875 533.652344 419.226562 527.636719 418.769531 Z M 527.636719 418.769531 " fill-opacity="1" fill-rule="nonzero"/><path fill="#323c7a" d="M 526.957031 454.445312 C 526.878906 454.445312 526.800781 454.4375 526.722656 454.421875 C 526.039062 454.292969 525.589844 453.636719 525.71875 452.953125 C 525.753906 452.777344 529.03125 435.148438 528.132812 413.074219 C 528.105469 412.378906 528.644531 411.792969 529.339844 411.761719 C 530.03125 411.730469 530.621094 412.273438 530.648438 412.96875 C 531.5625 435.347656 528.226562 453.242188 528.195312 453.421875 C 528.078125 454.023438 527.550781 454.445312 526.957031 454.445312 Z M 526.957031 454.445312 " fill-opacity="1" fill-rule="nonzero"/><path fill="#382b38" d="M 532.382812 454.394531 C 531.542969 461.085938 526.023438 466.746094 526.023438 466.746094 C 526.023438 466.746094 523.679688 466.769531 523.328125 466.726562 C 519.242188 466.214844 516.675781 459.863281 517.59375 452.542969 C 518.507812 445.21875 522.5625 439.699219 526.648438 440.210938 C 526.761719 440.222656 528.648438 440.195312 528.648438 440.195312 C 528.648438 440.195312 533.273438 447.273438 532.382812 454.394531 Z M 532.382812 454.394531 " fill-opacity="1" fill-rule="nonzero"/><path fill="#4f3e4f" d="M 534.523438 454.394531 C 533.605469 461.714844 529.550781 467.238281 525.464844 466.726562 C 521.382812 466.214844 518.8125 459.863281 519.730469 452.542969 C 520.648438 445.21875 524.703125 439.699219 528.789062 440.210938 C 532.871094 440.722656 535.441406 447.070312 534.523438 454.394531 Z M 534.523438 454.394531 " fill-opacity="1" fill-rule="nonzero"/><path fill="#9e5959" d="M 388.484375 474.484375 C 388.484375 474.484375 407 475.054688 435.351562 466.441406 C 463.703125 457.828125 519.875 435.089844 526.402344 434.339844 C 532.925781 433.589844 535.25 412.597656 518.46875 415.097656 C 501.6875 417.597656 473.566406 422.34375 458.265625 423.59375 C 442.960938 424.84375 400.480469 426.84375 389.484375 433.839844 C 378.488281 440.835938 373.992188 467.152344 388.484375 474.484375 Z M 388.484375 474.484375 " fill-opacity="1" fill-rule="nonzero"/><path fill="#9e5959" d="M 512.613281 415.988281 C 512.613281 415.988281 522.339844 412.820312 524.292969 408.941406 C 526.242188 405.058594 536.394531 388.921875 537.824219 387.492188 C 539.257812 386.058594 548.234375 377.863281 550.058594 376.820312 C 551.878906 375.78125 563.648438 370.925781 566.023438 369.664062 C 568.394531 368.402344 572.179688 366.789062 572.960938 367.511719 C 573.742188 368.234375 573.09375 371.226562 569.839844 373.308594 C 566.585938 375.390625 560.339844 378.382812 560.339844 378.382812 L 550.449219 387.882812 C 550.449219 387.882812 559.695312 384.5 561.839844 384.109375 C 563.984375 383.71875 577.257812 390.210938 577.90625 391.128906 C 578.558594 392.046875 577.226562 393.738281 575.875 394 C 575.875 394 581.875 396.882812 582.398438 398.183594 C 582.917969 399.484375 580.855469 401.460938 575.875 400.835938 C 571.496094 400.289062 567.105469 399.332031 567.105469 399.332031 L 556.234375 403.886719 C 556.234375 403.886719 556.695312 404.277344 558.648438 404.410156 C 560.597656 404.539062 568.160156 405.023438 569.453125 405.5625 C 570.75 406.101562 574.652344 410.394531 574.652344 411.4375 C 574.652344 412.476562 570.429688 412.476562 565.875 409.875 C 565.875 409.875 563.269531 409.875 561.839844 410.65625 C 560.40625 411.4375 556.433594 412.605469 554.222656 413.386719 C 552.011719 414.167969 547.417969 422.238281 542.816406 427.050781 C 538.214844 431.867188 532.8125 434.523438 525.425781 434.523438 C 518.035156 434.523438 496.78125 424.9375 512.613281 415.988281 Z M 512.613281 415.988281 " fill-opacity="1" fill-rule="nonzero"/><path fill="#723333" d="M 542.742188 392.046875 C 544.964844 390.414062 547.636719 387.566406 550.449219 387.882812 C 549.046875 389.167969 547.355469 389.757812 545.710938 390.601562 C 544.730469 391.089844 543.765625 391.605469 542.800781 392.132812 C 542.75 392.160156 542.695312 392.085938 542.742188 392.046875 Z M 542.742188 392.046875 " fill-opacity="1" fill-rule="nonzero"/><path fill="#723333" d="M 547.769531 399.421875 C 549.601562 397.914062 551.472656 396.425781 553.5 395.183594 C 556.527344 393.566406 559.730469 392.347656 562.96875 391.230469 C 564.832031 391.121094 566.722656 391.667969 568.546875 391.992188 C 571 392.589844 573.617188 393.089844 575.917969 394.011719 C 571.714844 393.757812 567.441406 392.742188 563.261719 392.113281 C 559.890625 393.082031 556.46875 394.242188 553.328125 395.832031 C 551.433594 396.789062 549.410156 398.601562 547.769531 399.421875 Z M 547.769531 399.421875 " fill-opacity="1" fill-rule="nonzero"/><path fill="#723333" d="M 549.589844 406.625 C 551.320312 405.1875 554.011719 403.089844 556.234375 403.886719 C 555.027344 404.882812 553.507812 405.085938 552.101562 405.609375 C 551.257812 405.910156 550.433594 406.261719 549.652344 406.707031 C 549.605469 406.734375 549.546875 406.664062 549.589844 406.625 Z M 549.589844 406.625 " fill-opacity="1" fill-rule="nonzero"/><path fill="#944a4a" d="M 565.847656 409.828125 C 566.0625 409.480469 566.34375 409.164062 566.410156 408.761719 C 566.433594 408.597656 566.5625 408.570312 566.707031 408.503906 C 566.929688 408.421875 567.160156 408.242188 567.3125 408.542969 C 567.734375 409.191406 566.957031 409.597656 566.449219 409.796875 C 566.300781 409.816406 565.855469 410.046875 565.847656 409.828125 Z M 565.847656 409.828125 " fill-opacity="1" fill-rule="nonzero"/><path fill="#944a4a" d="M 567.058594 399.316406 C 567.101562 398.703125 567.058594 398.019531 567.257812 397.445312 C 567.410156 397.269531 567.707031 396.972656 567.980469 397.046875 C 568.316406 397.449219 568.292969 397.976562 567.917969 398.332031 C 567.792969 398.476562 567.203125 399.523438 567.058594 399.316406 Z M 567.058594 399.316406 " fill-opacity="1" fill-rule="nonzero"/><path fill="#944a4a" d="M 563.113281 391.632812 C 563.097656 391.320312 563.097656 391 563.117188 390.691406 C 563.128906 390.550781 563.042969 390.378906 563.160156 390.261719 C 563.585938 389.824219 564.058594 389.941406 564.136719 390.570312 C 564.210938 390.703125 563.164062 391.902344 563.113281 391.632812 Z M 563.113281 391.632812 " fill-opacity="1" fill-rule="nonzero"/><path fill="#944a4a" d="M 560.339844 378.382812 C 560.238281 377.957031 559.964844 377.53125 559.914062 377.121094 C 560.054688 376.820312 560.421875 376.4375 560.746094 376.792969 C 560.898438 376.921875 561.011719 377.09375 560.941406 377.285156 C 560.761719 377.59375 560.695312 378.25 560.339844 378.382812 Z M 560.339844 378.382812 " fill-opacity="1" fill-rule="nonzero"/><path fill="#944a4a" d="M 561.953125 384.09375 C 562.480469 384.558594 563.046875 385.039062 563.355469 385.671875 C 563.574219 387.179688 562.300781 386.414062 562.210938 385.488281 C 562.191406 385.289062 561.703125 384.066406 561.953125 384.09375 Z M 561.953125 384.09375 " fill-opacity="1" fill-rule="nonzero"/><path fill="#944a4a" d="M 563.199219 391.625 C 563.804688 392.070312 564.328125 392.652344 564.863281 393.171875 C 565.179688 393.488281 565.402344 394.339844 565.023438 394.625 C 564.410156 394.394531 564.019531 393.925781 563.855469 393.308594 C 563.800781 393.085938 562.929688 391.605469 563.199219 391.625 Z M 563.199219 391.625 " fill-opacity="1" fill-rule="nonzero"/><path fill="#944a4a" d="M 569.503906 405.546875 C 569.800781 405.992188 570.308594 406.722656 569.953125 407.234375 C 569.480469 407.730469 569.222656 407.378906 569.039062 406.90625 C 569.144531 406.476562 569.34375 406.042969 569.40625 405.574219 C 569.410156 405.527344 569.476562 405.511719 569.503906 405.546875 Z M 569.503906 405.546875 " fill-opacity="1" fill-rule="nonzero"/><path fill="#944a4a" d="M 572.019531 407.746094 C 571.828125 408.6875 572.488281 409.320312 572.035156 410.242188 C 571.609375 410.421875 571.09375 409.792969 571.1875 409.371094 C 571.292969 408.898438 571.554688 407.746094 572.019531 407.746094 Z M 572.019531 407.746094 " fill-opacity="1" fill-rule="nonzero"/><path fill="#944a4a" d="M 577.84375 395.003906 C 577.9375 395.664062 578.109375 396.285156 578.386719 396.886719 C 578.789062 397.460938 578.988281 397.804688 579.234375 398.550781 C 578.769531 398.933594 577.851562 398.253906 577.730469 397.707031 C 577.535156 397.183594 577.375 395.144531 577.84375 395.003906 Z M 577.84375 395.003906 " fill-opacity="1" fill-rule="nonzero"/><path fill="#944a4a" d="M 573.089844 388.394531 C 573.390625 389.8125 574.167969 390.746094 574.804688 392.046875 C 574.332031 392.503906 573.347656 391.777344 573.207031 391.210938 C 573.015625 390.421875 572.652344 388.929688 573.089844 388.394531 Z M 573.089844 388.394531 " fill-opacity="1" fill-rule="nonzero"/><path fill="#944a4a" d="M 566.746094 369.289062 C 567.988281 369.878906 569.160156 369.40625 570.429688 369.917969 C 570.445312 370.46875 569.449219 370.816406 568.949219 370.652344 C 568.234375 370.40625 566.878906 369.941406 566.746094 369.289062 Z M 566.746094 369.289062 " fill-opacity="1" fill-rule="nonzero"/><path fill="#944a4a" d="M 556.574219 373.871094 C 557.0625 373.863281 557.550781 373.949219 558.035156 373.992188 C 558.371094 374.027344 558.6875 374.570312 558.539062 374.867188 C 558.25 375.011719 557.859375 375.152344 557.601562 374.910156 C 557.449219 374.660156 556.40625 374.089844 556.574219 373.871094 Z M 556.574219 373.871094 " fill-opacity="1" fill-rule="nonzero"/><path fill="#75a8ff" d="M 383.835938 476.558594 C 383.835938 476.558594 398.347656 480.164062 427.589844 474.492188 C 456.832031 468.824219 529.550781 447.660156 529.550781 447.660156 C 529.550781 447.660156 536.113281 420.347656 515.964844 407.722656 C 515.964844 407.722656 444.347656 417.285156 430.441406 419.347656 C 416.535156 421.40625 386.359375 426.09375 376.238281 438.085938 C 366.304688 449.863281 370.816406 469.867188 383.835938 476.558594 Z M 383.835938 476.558594 " fill-opacity="1" fill-rule="nonzero"/><path fill="#4f3e4f" d="M 455.515625 275.078125 C 455.414062 275.070312 455.308594 275.074219 455.203125 275.089844 C 454.992188 275.125 449.894531 276.054688 445.152344 282.613281 C 442.441406 286.359375 440.378906 291.207031 439.019531 297.027344 C 437.335938 304.207031 436.722656 312.917969 437.1875 322.910156 C 437.683594 333.519531 437.921875 341.3125 437.929688 347.433594 C 437.933594 348.128906 438.496094 348.691406 439.191406 348.691406 C 439.886719 348.691406 440.449219 348.125 440.449219 347.429688 C 440.4375 341.269531 440.203125 333.441406 439.703125 322.792969 C 438.6875 301.003906 443.125 289.84375 447.03125 284.316406 C 450.523438 279.371094 454.210938 277.976562 455.308594 277.65625 C 455.367188 276.933594 455.4375 276.066406 455.515625 275.078125 Z M 455.515625 275.078125 " fill-opacity="1" fill-rule="nonzero"/><path fill="#4f3e4f" d="M 453.992188 433.152344 C 453.511719 433.152344 453.035156 432.953125 452.699219 432.558594 C 452.089844 431.84375 452.171875 430.769531 452.886719 430.160156 C 452.921875 430.132812 456.558594 426.941406 459.808594 420.191406 C 462.808594 413.953125 466.085938 403.300781 464.632812 387.992188 C 462.90625 369.753906 455.972656 360.21875 450.457031 355.433594 C 445.242188 350.90625 440.394531 349.699219 439.347656 349.480469 C 438.355469 349.625 433.804688 350.460938 428.695312 354.316406 C 421.019531 360.109375 415.542969 370.074219 412.855469 383.136719 C 409.8125 397.9375 412.914062 409.957031 416.050781 417.433594 C 419.46875 425.574219 423.671875 430.261719 423.714844 430.308594 C 424.34375 431.003906 424.292969 432.082031 423.597656 432.710938 C 422.902344 433.34375 421.828125 433.292969 421.195312 432.597656 C 421.011719 432.394531 416.621094 427.519531 412.972656 418.886719 C 409.613281 410.941406 406.289062 398.171875 409.523438 382.449219 C 413.164062 364.761719 420.953125 355.828125 426.84375 351.449219 C 433.359375 346.613281 439.023438 346.085938 439.257812 346.066406 C 439.394531 346.054688 439.53125 346.058594 439.667969 346.078125 C 439.925781 346.121094 446.09375 347.140625 452.6875 352.863281 C 456.519531 356.1875 459.714844 360.429688 462.195312 365.464844 C 465.253906 371.691406 467.214844 379.164062 468.023438 387.671875 C 469.558594 403.875 466.015625 415.210938 462.777344 421.867188 C 459.214844 429.179688 455.265625 432.605469 455.097656 432.746094 C 454.777344 433.019531 454.382812 433.152344 453.992188 433.152344 Z M 453.992188 433.152344 " fill-opacity="1" fill-rule="nonzero"/><path fill="#4f3e4f" d="M 432.824219 437.839844 C 431.410156 440.15625 428.382812 440.882812 426.066406 439.46875 C 423.753906 438.050781 419.800781 433.050781 421.214844 430.738281 C 422.632812 428.421875 428.882812 429.664062 431.199219 431.082031 C 433.511719 432.5 434.242188 435.523438 432.824219 437.839844 Z M 432.824219 437.839844 " fill-opacity="1" fill-rule="nonzero"/><path fill="#4f3e4f" d="M 443.757812 437.839844 C 445.175781 440.15625 448.199219 440.882812 450.515625 439.46875 C 452.832031 438.050781 456.785156 433.050781 455.367188 430.738281 C 453.949219 428.421875 447.699219 429.664062 445.386719 431.082031 C 443.070312 432.5 442.339844 435.523438 443.757812 437.839844 Z M 443.757812 437.839844 " fill-opacity="1" fill-rule="nonzero"/></svg>